<svg t="1632058651257" class="icon" viewBox="0 0 1024 1024" version="1.1" xmlns="http://www.w3.org/2000/svg" p-id="7264" width="200" height="200"><path d="M22.18666667 207.34862222c0 14.85937778 6.13262222 29.66186667 16.62293333 40.16355556 10.56995555 10.56995555 25.37244445 16.70257778 40.31146667 16.70257777a57.61479111 57.61479111 0 0 0 40.16355555-16.62293333c10.56995555-10.56995555 16.70257778-25.37244445 16.70257778-40.23182222a57.60113778 57.60113778 0 0 0-16.55466667-40.31146667 57.57155555 57.57155555 0 0 0-40.30008888-16.62293333 57.62730667 57.62730667 0 0 0-40.31146667 16.62293333 58.03918222 58.03918222 0 0 0-16.63431111 40.30008889m0 303.47946667c0 14.87075555 6.06435555 29.80977778 16.62293333 40.31146666 10.56995555 10.56995555 25.2928 16.62293333 40.31146667 16.62293334a57.72629333 57.72629333 0 0 0 40.23182222-16.62293334 57.50897778 57.50897778 0 0 0 16.62293333-40.31146666 57.72629333 57.72629333 0 0 0-16.62293333-40.23182222A57.43957333 57.43957333 0 0 0 79.12106667 453.97333333c-15.09831111 0.05688889-29.55946667 6.03022222-40.31146667 16.62293334a57.51694222 57.51694222 0 0 0-16.62293333 40.23182222m0 303.54773333c0 14.85937778 6.06435555 29.73013333 16.62293333 40.30008889 10.56995555 10.56995555 25.2928 16.62293333 40.31146667 16.62293334a57.72629333 57.72629333 0 0 0 40.23182222-16.62293334 57.50215111 57.50215111 0 0 0 16.62293333-40.30008889 57.74563555 57.74563555 0 0 0-16.62293333-40.31146667 57.48849778 57.48849778 0 0 0-40.23182222-16.62293333c-15.09831111 0.05688889-29.55946667 6.03022222-40.31146667 16.62293333a57.93564445 57.93564445 0 0 0-16.62293333 40.31146667m986.45333333-607.0272c0 31.42542222-24.51911111 56.86613333-54.74986667 56.86613333H304.59448889c-30.29902222 0-54.74986667-25.36106667-54.74986667-56.86613333-0.06826667-31.57333333 24.45084445-56.9344 54.74986667-56.9344h649.29564444c30.29902222 0 54.74986667 25.44071111 54.74986667 56.9344m-54.74986667 360.41386667H304.59448889c-30.29902222 0-54.74986667-25.42933333-54.74986667-56.9344 0-31.42542222 24.45084445-56.86613333 54.74986667-56.86613334h649.29564444c30.29902222-0.13653333 54.74986667 25.36106667 54.74986667 56.86613334 0 31.35715555-24.51911111 56.9344-54.74986667 56.9344z m54.74986667 246.53368889c0 31.49368889-24.51911111 57.00266667-54.74986667 57.00266667H304.59448889c-30.29902222 0-54.74986667-25.50897778-54.74986667-57.00266667 0-31.35715555 24.45084445-56.86613333 54.74986667-56.86613333h649.29564444c30.29902222-0.05688889 54.74986667 25.52035555 54.74986667 56.86613333" p-id="7265"></path></svg>